<svg xmlns="http://www.w3.org/2000/svg" version="1.1" xmlns:xlink="http://www.w3.org/1999/xlink" xmlns:svgjs="http://svgjs.dev/svgjs" width="1440" height="560" preserveAspectRatio="none" viewBox="0 0 1440 560"><g mask="url(&quot;#SvgjsMask1000&quot;)" fill="none"><rect width="1440" height="560" x="0" y="0" fill="#0e2a47"></rect><path d="M0,445.78C109.749,449.162,221.709,547.345,318.793,496.052C414.693,445.385,434.61,313.643,452.56,206.677C467.706,116.422,418.487,32.052,411.978,-59.233C404.766,-160.386,477.363,-279.474,412.349,-357.302C347.607,-434.804,218.411,-386.008,120.016,-408.738C29.333,-429.687,-50.862,-501.458,-142.553,-485.49C-236.992,-469.043,-303.493,-389.278,-372.685,-322.933C-448.444,-250.291,-560.038,-186.003,-564.264,-81.129C-568.536,24.886,-437.442,83.132,-392.929,179.444C-348.728,275.082,-393.623,417.672,-306.411,476.786C-219.677,535.576,-104.731,442.553,0,445.78" fill="#0b2239"></path><path d="M1440 1038.937C1548.519 1042.024 1674.469 1124.3809999999999 1758.646 1055.8229999999999 1845.4180000000001 985.152 1790.961 840.961 1816.78 732.0699999999999 1836.288 649.795 1882.344 579.116 1891.604 495.069 1903.321 388.717 1936.625 270.08 1877.505 180.89999999999998 1817.864 90.93400000000003 1694.688 75.63900000000001 1591.838 42.88599999999997 1486.665 9.393000000000029 1370.584-61.69200000000001 1272.074-11.903999999999996 1171.492 38.932000000000016 1182.174 188.52499999999998 1119.01 281.86 1066.327 359.70799999999997 958.3299999999999 396.421 934.2529999999999 487.284 909.547 580.523 958.259 674.324 990.971 765.065 1026.463 863.517 1043.4470000000001 983.528 1132.7939999999999 1038.022 1222.025 1092.446 1335.523 1035.965 1440 1038.937" fill="#113255"></path></g><defs><mask id="SvgjsMask1000"><rect width="1440" height="560" fill="#ffffff"></rect></mask></defs></svg>